<svg width="13" height="14" viewBox="0 0 13 14" fill="none" xmlns="http://www.w3.org/2000/svg">
<path d="M3.1875 13.0312V4.85547H0.644531V13.0312H3.1875ZM1.90234 3.76172C2.72266 3.76172 3.37891 3.07812 3.37891 2.25781C3.37891 1.46484 2.72266 0.808594 1.90234 0.808594C1.10938 0.808594 0.453125 1.46484 0.453125 2.25781C0.453125 3.07812 1.10938 3.76172 1.90234 3.76172ZM12.6758 13.0312H12.7031V8.54688C12.7031 6.35938 12.2109 4.66406 9.64062 4.66406C8.41016 4.66406 7.58984 5.34766 7.23438 5.97656H7.20703V4.85547H4.77344V13.0312H7.31641V8.98438C7.31641 7.91797 7.50781 6.90625 8.82031 6.90625C10.1328 6.90625 10.1602 8.10938 10.1602 9.06641V13.0312H12.6758Z" fill="black"/>
</svg>
