<svg width="15" height="12" viewBox="0 0 15 12" fill="none" xmlns="http://www.w3.org/2000/svg">
<path d="M13.3945 2.9375C13.9414 2.52734 14.4336 2.03516 14.8164 1.46094C14.3242 1.67969 13.75 1.84375 13.1758 1.89844C13.7773 1.54297 14.2148 0.996094 14.4336 0.3125C13.8867 0.640625 13.2578 0.886719 12.6289 1.02344C12.082 0.449219 11.3438 0.121094 10.5234 0.121094C8.9375 0.121094 7.65234 1.40625 7.65234 2.99219C7.65234 3.21094 7.67969 3.42969 7.73438 3.64844C5.35547 3.51172 3.22266 2.36328 1.80078 0.640625C1.55469 1.05078 1.41797 1.54297 1.41797 2.08984C1.41797 3.07422 1.91016 3.94922 2.70312 4.46875C2.23828 4.44141 1.77344 4.33203 1.39062 4.11328V4.14062C1.39062 5.53516 2.375 6.68359 3.6875 6.95703C3.46875 7.01172 3.19531 7.06641 2.94922 7.06641C2.75781 7.06641 2.59375 7.03906 2.40234 7.01172C2.75781 8.16016 3.82422 8.98047 5.08203 9.00781C4.09766 9.77344 2.86719 10.2383 1.52734 10.2383C1.28125 10.2383 1.0625 10.2109 0.84375 10.1836C2.10156 11.0039 3.60547 11.4688 5.24609 11.4688C10.5234 11.4688 13.3945 7.12109 13.3945 3.32031C13.3945 3.18359 13.3945 3.07422 13.3945 2.9375Z" fill="black"/>
</svg>
